HIERARCHY
ROOT mixamorig:Hips
{
	OFFSET 0.000000 82.849998 0.000000
	CHANNELS 6 Xposition Yposition Zposition Zrotation Xrotation Yrotation
	JOINT mixamorig:RightUpLeg
	{
		OFFSET -11.015000 0.000000 0.000000
		CHANNELS 6 Xposition Yposition Zposition Zrotation Xrotation Yrotation
		JOINT mixamorig:RightLeg
		{
			OFFSET 0.000006 38.939995 0.000000
			CHANNELS 6 Xposition Yposition Zposition Zrotation Xrotation Yrotation
			JOINT mixamorig:RightFoot
			{
				OFFSET 0.000006 36.949997 0.000000
				CHANNELS 6 Xposition Yposition Zposition Zrotation Xrotation Yrotation
				JOINT mixamorig:RightToeBase
				{
					OFFSET 0.000002 14.453186 0.000002
					CHANNELS 3 Zrotation Xrotation Yrotation
					End Site
					{
						OFFSET 0.000000 5.428715 0.000000
					}
				}
			}
		}
	}
	JOINT mixamorig:LeftUpLeg
	{
		OFFSET 11.015000 0.000000 0.000000
		CHANNELS 6 Xposition Yposition Zposition Zrotation Xrotation Yrotation
		JOINT mixamorig:LeftLeg
		{
			OFFSET 0.000006 38.939995 0.000000
			CHANNELS 6 Xposition Yposition Zposition Zrotation Xrotation Yrotation
			JOINT mixamorig:LeftFoot
			{
				OFFSET 0.000006 36.949997 0.000000
				CHANNELS 6 Xposition Yposition Zposition Zrotation Xrotation Yrotation
				JOINT mixamorig:LeftToeBase
				{
					OFFSET 0.000002 14.453186 0.000002
					CHANNELS 3 Zrotation Xrotation Yrotation
					End Site
					{
						OFFSET 0.000000 5.428715 0.000000
					}
				}
			}
		}
	}
	JOINT mixamorig:Spine
	{
		OFFSET 0.000000 7.485405 -0.654888
		CHANNELS 6 Xposition Yposition Zposition Zrotation Xrotation Yrotation
		JOINT mixamorig:Spine1
		{
			OFFSET 0.000000 16.638000 0.000000
			CHANNELS 6 Xposition Yposition Zposition Zrotation Xrotation Yrotation
			JOINT mixamorig:Spine2
			{
				OFFSET 0.000000 11.806999 0.000000
				CHANNELS 6 Xposition Yposition Zposition Zrotation Xrotation Yrotation
				JOINT mixamorig:Neck
				{
					OFFSET 0.000000 17.711006 0.000000
					CHANNELS 6 Xposition Yposition Zposition Zrotation Xrotation Yrotation
					JOINT mixamorig:Head
					{
						OFFSET 0.000000 8.074463 -2.623555
						CHANNELS 6 Xposition Yposition Zposition Zrotation Xrotation Yrotation
						End Site
						{
							OFFSET 0.000000 19.021133 -6.180341
						}
					}
				}
				JOINT mixamorig:RightShoulder
				{
					OFFSET -6.074482 12.344002 0.000000
					CHANNELS 6 Xposition Yposition Zposition Zrotation Xrotation Yrotation
					JOINT mixamorig:RightArm
					{
						OFFSET -0.000001 10.130514 0.000001
						CHANNELS 6 Xposition Yposition Zposition Zrotation Xrotation Yrotation
						JOINT mixamorig:RightForeArm
						{
							OFFSET -0.000002 21.779999 0.000002
							CHANNELS 6 Xposition Yposition Zposition Zrotation Xrotation Yrotation
							JOINT mixamorig:RightHand
							{
								OFFSET -0.000002 23.800003 0.000002
								CHANNELS 6 Xposition Yposition Zposition Zrotation Xrotation Yrotation
								JOINT mixamorig:RightHandThumb1
								{
									OFFSET 2.388923 1.769394 0.453000
									CHANNELS 6 Xposition Yposition Zposition Zrotation Xrotation Yrotation
									JOINT mixamorig:RightHandThumb2
									{
										OFFSET 0.066587 3.622391 0.000000
										CHANNELS 6 Xposition Yposition Zposition Zrotation Xrotation Yrotation
										JOINT mixamorig:RightHandThumb3
										{
											OFFSET 0.046278 2.517578 0.000000
											CHANNELS 6 Xposition Yposition Zposition Zrotation Xrotation Yrotation
											End Site
											{
												OFFSET 0.043650 2.374603 0.000000
											}
										}
									}
								}
								JOINT mixamorig:RightHandIndex1
								{
									OFFSET 3.082142 8.249741 -0.410000
									CHANNELS 6 Xposition Yposition Zposition Zrotation Xrotation Yrotation
									JOINT mixamorig:RightHandIndex2
									{
										OFFSET 0.065466 3.561401 0.000000
										CHANNELS 6 Xposition Yposition Zposition Zrotation Xrotation Yrotation
										JOINT mixamorig:RightHandIndex3
										{
											OFFSET 0.037107 2.018661 0.000000
											CHANNELS 6 Xposition Yposition Zposition Zrotation Xrotation Yrotation
											End Site
											{
												OFFSET 0.032641 1.775696 0.000000
											}
										}
									}
								}
								JOINT mixamorig:RightHandMiddle1
								{
									OFFSET 1.208574 8.399216 -0.426999
									CHANNELS 6 Xposition Yposition Zposition Zrotation Xrotation Yrotation
									JOINT mixamorig:RightHandMiddle2
									{
										OFFSET 0.071421 3.885345 0.000000
										CHANNELS 6 Xposition Yposition Zposition Zrotation Xrotation Yrotation
										JOINT mixamorig:RightHandMiddle3
										{
											OFFSET 0.044771 2.435593 0.000000
											CHANNELS 6 Xposition Yposition Zposition Zrotation Xrotation Yrotation
											End Site
											{
												OFFSET 0.035710 1.942673 0.000000
											}
										}
									}
								}
								JOINT mixamorig:RightHandRing1
								{
									OFFSET -0.453202 7.882660 -0.506999
									CHANNELS 6 Xposition Yposition Zposition Zrotation Xrotation Yrotation
									JOINT mixamorig:RightHandRing2
									{
										OFFSET 0.062249 3.386429 0.000000
										CHANNELS 6 Xposition Yposition Zposition Zrotation Xrotation Yrotation
										JOINT mixamorig:RightHandRing3
										{
											OFFSET 0.043191 2.349609 0.000000
											CHANNELS 6 Xposition Yposition Zposition Zrotation Xrotation Yrotation
											End Site
											{
												OFFSET 0.033578 1.826691 0.000000
											}
										}
									}
								}
								JOINT mixamorig:RightHandPinky1
								{
									OFFSET -2.123566 7.225250 -0.439999
									CHANNELS 6 Xposition Yposition Zposition Zrotation Xrotation Yrotation
									JOINT mixamorig:RightHandPinky2
									{
										OFFSET 0.049862 2.712540 0.000000
										CHANNELS 6 Xposition Yposition Zposition Zrotation Xrotation Yrotation
										JOINT mixamorig:RightHandPinky3
										{
											OFFSET 0.031502 1.713715 0.000000
											CHANNELS 6 Xposition Yposition Zposition Zrotation Xrotation Yrotation
											End Site
											{
												OFFSET 0.029756 1.618729 0.000000
											}
										}
									}
								}
							}
						}
					}
				}
				JOINT mixamorig:LeftShoulder
				{
					OFFSET 6.074482 12.344002 0.000000
					CHANNELS 6 Xposition Yposition Zposition Zrotation Xrotation Yrotation
					JOINT mixamorig:LeftArm
					{
						OFFSET 0.000001 10.130514 0.000001
						CHANNELS 6 Xposition Yposition Zposition Zrotation Xrotation Yrotation
						JOINT mixamorig:LeftForeArm
						{
							OFFSET 0.000002 21.779999 0.000002
							CHANNELS 6 Xposition Yposition Zposition Zrotation Xrotation Yrotation
							JOINT mixamorig:LeftHand
							{
								OFFSET 0.000002 23.800003 0.000002
								CHANNELS 6 Xposition Yposition Zposition Zrotation Xrotation Yrotation
								JOINT mixamorig:LeftHandThumb1
								{
									OFFSET -2.356000 1.813004 0.453000
									CHANNELS 6 Xposition Yposition Zposition Zrotation Xrotation Yrotation
									JOINT mixamorig:LeftHandThumb2
									{
										OFFSET 0.000000 3.623001 0.000000
										CHANNELS 6 Xposition Yposition Zposition Zrotation Xrotation Yrotation
										JOINT mixamorig:LeftHandThumb3
										{
											OFFSET -0.000000 2.518005 0.000000
											CHANNELS 6 Xposition Yposition Zposition Zrotation Xrotation Yrotation
											End Site
											{
												OFFSET -0.000001 2.375000 0.000000
											}
										}
									}
								}
								JOINT mixamorig:LeftHandIndex1
								{
									OFFSET -2.929999 8.304993 -0.409999
									CHANNELS 6 Xposition Yposition Zposition Zrotation Xrotation Yrotation
									JOINT mixamorig:LeftHandIndex2
									{
										OFFSET 0.000000 3.561996 0.000000
										CHANNELS 6 Xposition Yposition Zposition Zrotation Xrotation Yrotation
										JOINT mixamorig:LeftHandIndex3
										{
											OFFSET 0.000000 2.018997 0.000000
											CHANNELS 6 Xposition Yposition Zposition Zrotation Xrotation Yrotation
											End Site
											{
												OFFSET 0.000000 1.776001 0.000000
											}
										}
									}
								}
								JOINT mixamorig:LeftHandMiddle1
								{
									OFFSET -1.053999 8.419998 -0.426999
									CHANNELS 6 Xposition Yposition Zposition Zrotation Xrotation Yrotation
									JOINT mixamorig:LeftHandMiddle2
									{
										OFFSET 0.000000 3.886002 0.000000
										CHANNELS 6 Xposition Yposition Zposition Zrotation Xrotation Yrotation
										JOINT mixamorig:LeftHandMiddle3
										{
											OFFSET 0.000000 2.436005 0.000000
											CHANNELS 6 Xposition Yposition Zposition Zrotation Xrotation Yrotation
											End Site
											{
												OFFSET 0.000000 1.942993 0.000000
											}
										}
									}
								}
								JOINT mixamorig:LeftHandRing1
								{
									OFFSET 0.598001 7.873001 -0.506999
									CHANNELS 6 Xposition Yposition Zposition Zrotation Xrotation Yrotation
									JOINT mixamorig:LeftHandRing2
									{
										OFFSET 0.000000 3.386993 0.000000
										CHANNELS 6 Xposition Yposition Zposition Zrotation Xrotation Yrotation
										JOINT mixamorig:LeftHandRing3
										{
											OFFSET 0.000000 2.350006 0.000000
											CHANNELS 6 Xposition Yposition Zposition Zrotation Xrotation Yrotation
											End Site
											{
												OFFSET 0.000000 1.826996 0.000000
											}
										}
									}
								}
								JOINT mixamorig:LeftHandPinky1
								{
									OFFSET 2.256001 7.184998 -0.439999
									CHANNELS 6 Xposition Yposition Zposition Zrotation Xrotation Yrotation
									JOINT mixamorig:LeftHandPinky2
									{
										OFFSET 0.000000 2.712997 0.000000
										CHANNELS 6 Xposition Yposition Zposition Zrotation Xrotation Yrotation
										JOINT mixamorig:LeftHandPinky3
										{
											OFFSET 0.000000 1.714005 0.000000
											CHANNELS 6 Xposition Yposition Zposition Zrotation Xrotation Yrotation
											End Site
											{
												OFFSET 0.000000 1.619003 0.000000
											}
										}
									}
								}
							}
						}
					}
				}
			}
		}
	}
}
MOTION
Frames: 4
Frame Time: 0.033333
0.000000 82.849998 0.000000 -0.000000 5.000000 0.000000 -11.015000 0.000000 0.000000 0.000014 174.999985 -179.999985 0.000006 38.939995 0.000000 0.000005 -2.499994 -0.000005 0.000006 36.949997 0.000000 0.000010 61.212994 -0.000016 -0.000000 28.787001 0.000000 11.015000 0.000000 0.000000 0.000014 174.999985 -179.999985 0.000006 38.939995 0.000000 0.000005 -2.499994 -0.000005 0.000006 36.949997 0.000000 0.000010 61.212994 -0.000016 -0.000000 28.787001 0.000000 0.000000 7.485405 -0.654888 0.000000 -5.000000 0.000000 0.000000 16.638000 0.000000 -0.000000 0.000000 -0.000000 0.000000 11.806999 0.000000 -0.000000 0.000000 -0.000000 0.000000 17.711006 0.000000 -0.000000 18.000006 0.000000 0.000000 8.074463 -2.623555 -0.000000 0.000000 -0.000000 -6.074482 12.344002 0.000000 89.999992 0.000005 -90.000000 -0.000001 10.130514 0.000001 -0.000000 0.000000 -0.000000 -0.000002 21.779999 0.000002 -0.000000 0.000000 -0.000000 -0.000002 23.800003 0.000002 1.053090 0.000000 0.000000 2.388923 1.769394 0.453000 149.576767 154.749802 -166.500580 0.066587 3.622391 0.000000 0.000007 0.000007 -0.000003 0.046278 2.517578 0.000000 0.000007 -0.000007 0.000000 3.082142 8.249741 -0.410000 -0.000000 0.000000 -0.000000 0.065466 3.561401 0.000000 -0.000000 0.000000 -0.000000 0.037107 2.018661 0.000000 -0.000000 0.000000 -0.000000 1.208574 8.399216 -0.426999 -0.000000 0.000000 -0.000000 0.071421 3.885345 0.000000 -0.000000 0.000000 -0.000000 0.044771 2.435593 0.000000 -0.000000 0.000000 -0.000000 -0.453202 7.882660 -0.506999 -0.000000 0.000000 -0.000000 0.062249 3.386429 0.000000 -0.000000 0.000000 -0.000000 0.043191 2.349609 0.000000 -0.000000 0.000000 -0.000000 -2.123566 7.225250 -0.439999 -0.000000 0.000000 -0.000000 0.049862 2.712540 0.000000 -0.000000 0.000000 -0.000000 0.031502 1.713715 0.000000 -0.000000 0.000000 -0.000000 6.074482 12.344002 0.000000 90.000015 179.999985 -90.000000 0.000001 10.130514 0.000001 0.000000 0.000000 -0.000007 0.000002 21.779999 0.000002 0.000000 0.000000 -0.000007 0.000002 23.800003 0.000002 0.000000 0.000000 -0.000007 -2.356000 1.813004 0.453000 30.499998 25.000046 -13.979165 0.000000 3.623001 0.000000 179.999985 179.999985 -179.999985 -0.000000 2.518005 0.000000 179.999985 179.999985 -179.999985 -2.929999 8.304993 -0.409999 0.000000 0.000000 -0.000007 0.000000 3.561996 0.000000 0.000000 0.000000 -0.000007 0.000000 2.018997 0.000000 0.000000 0.000000 -0.000007 -1.053999 8.419998 -0.426999 0.000000 0.000000 -0.000007 0.000000 3.886002 0.000000 0.000000 0.000000 -0.000007 0.000000 2.436005 0.000000 0.000000 0.000000 -0.000007 0.598001 7.873001 -0.506999 0.000000 0.000000 -0.000007 0.000000 3.386993 0.000000 0.000000 0.000000 -0.000007 0.000000 2.350006 0.000000 0.000000 0.000000 -0.000007 2.256001 7.184998 -0.439999 0.000000 0.000000 -0.000007 0.000000 2.712997 0.000000 0.000000 0.000000 -0.000007 0.000000 1.714005 0.000000 0.000000 0.000000 -0.000007
-106.308891 81.655136 142.435059 177.611237 178.604980 -2.506973 -10.983910 0.117340 0.009705 174.218552 12.031083 10.053891 -0.035103 38.823486 -0.031723 6.268144 -59.772964 23.645861 -0.011864 36.839325 -0.170792 39.320881 71.423820 -46.564335 -0.000000 28.787001 0.000000 10.967934 -0.071587 -0.042358 171.145370 3.327139 -0.725981 0.009964 38.959030 0.018021 1.705196 -14.657191 -3.231589 0.055420 37.012062 -0.007477 16.231056 70.064171 -13.714170 -0.000000 28.787001 0.000000 0.022369 7.475029 -0.633926 179.911575 176.548660 179.336227 0.010521 16.631752 0.003159 179.851303 171.711227 179.352325 -0.008568 11.800659 -0.004898 179.567566 173.996399 176.935638 -0.001427 17.710785 0.001923 179.358551 165.488297 179.958969 0.004082 8.069687 -2.635712 178.511871 -172.930496 -179.125229 -6.074557 12.343643 0.001511 98.881638 5.945106 -86.852463 -0.006973 10.139578 0.001251 133.492111 106.815590 -142.483276 -0.036896 21.787354 -0.034302 170.353439 170.818176 159.718918 -0.037117 23.795502 -0.020020 0.785212 -9.508073 10.689982 2.389336 1.769012 0.453156 148.208817 177.509445 -137.249161 0.066597 3.622833 0.000000 10.919333 0.000040 0.000202 0.046272 2.517319 0.000000 7.272268 0.000053 0.000127 3.082268 8.250214 -0.410568 9.672512 22.319752 -0.430746 0.065460 3.561218 0.000000 0.054693 18.261736 -0.346309 0.037109 2.018936 0.000000 0.025854 12.783250 -0.238349 1.208611 8.398880 -0.426880 10.457767 23.167912 -0.450372 0.071426 3.885620 0.000000 0.092056 23.167910 -0.450391 0.044777 2.435760 0.000000 0.039143 15.429923 -0.290570 -0.453377 7.881912 -0.507523 11.705140 25.561665 -0.503303 0.062248 3.386337 0.000000 0.113844 25.561708 -0.503371 0.043190 2.349686 0.000000 0.047967 17.024179 -0.322361 -2.123383 7.225510 -0.440460 23.740322 28.925028 -0.580131 0.049858 2.712143 0.000000 0.395551 43.384293 -0.995266 0.031502 1.713547 0.000000 0.149573 28.894682 -0.581372 6.073771 12.343842 0.004440 83.105461 178.350204 -91.152893 -0.001503 10.129614 -0.000565 53.827145 71.585304 -47.742477 0.001831 21.780334 -0.006195 7.224180 2.078247 3.566611 0.010391 23.798248 -0.015747 3.460408 -10.097086 3.472054 -2.356422 1.812637 0.453156 31.008682 0.636349 -47.996998 0.000000 3.623444 0.000000 168.216217 -179.999908 -179.999802 0.000000 2.517746 0.000000 172.151978 -179.999924 -179.999847 -2.930115 8.305481 -0.410568 170.777191 156.173340 179.997864 0.000000 3.561829 0.000000 0.001188 19.494558 -0.001410 0.000000 2.019272 0.000000 0.000964 13.646192 -0.000728 -1.054047 8.419662 -0.426880 170.646606 151.774460 179.997208 0.000000 3.886276 0.000000 0.002308 28.225538 -0.002211 0.000000 2.436172 0.000000 0.001608 18.798222 -0.000765 0.598167 7.872253 -0.507523 168.944824 150.433838 179.995193 0.000000 3.386902 0.000000 0.004176 29.566223 -0.003861 0.000000 2.350082 0.000000 0.002835 19.691090 -0.001255 2.255814 7.185272 -0.440460 153.085938 153.832184 179.995285 0.000000 2.712601 0.000000 0.006534 39.251701 -0.006478 0.000000 1.713837 0.000000 0.004133 26.141634 -0.001703
-106.222656 81.708107 141.406876 177.934113 178.861496 -2.762697 -10.987473 0.103043 -0.025345 175.289795 14.083856 9.537177 0.000328 38.977440 0.045853 3.399055 -55.832912 20.511560 -0.077393 36.954880 0.045319 45.057625 75.632019 -51.663006 -0.000000 28.787001 0.000000 10.928246 -0.078171 -0.033279 171.569656 2.861026 -0.746858 0.013695 38.946083 -0.030304 1.638801 -14.649631 -3.530624 0.068451 37.030258 -0.064728 16.325850 70.664146 -14.034149 -0.000000 28.787001 0.000000 0.023529 7.479111 -0.642380 179.963654 176.541901 179.330154 0.016373 16.635216 -0.003433 179.938858 171.704575 179.336746 0.002113 11.803368 -0.007706 179.681534 173.987701 176.888000 0.000969 17.710838 0.001389 179.337265 165.570923 179.956604 0.004433 8.070755 -2.632904 178.410217 -172.762497 -178.951584 -6.075213 12.345650 0.000137 98.938293 6.131498 -86.890671 -0.003616 10.135763 -0.000366 133.994690 107.012527 -143.095428 -0.019073 21.785675 -0.026581 169.309631 169.826065 159.409225 -0.040535 23.795853 -0.021240 0.229572 -9.625250 10.619205 2.389336 1.769012 0.453156 148.417816 177.693817 -137.343185 0.066597 3.622833 0.000000 10.939288 0.000058 -0.000071 0.046272 2.517319 0.000000 7.285577 0.000028 -0.000022 3.082268 8.250214 -0.410568 9.597363 22.644577 -0.439273 0.065460 3.561218 0.000000 0.057510 18.527391 -0.352887 0.037109 2.018936 0.000000 0.027521 12.969249 -0.242521 1.208611 8.398880 -0.426880 10.438725 23.270138 -0.453495 0.071426 3.885620 0.000000 0.093772 23.270086 -0.453457 0.044777 2.435760 0.000000 0.040100 15.497971 -0.292260 -0.453377 7.881912 -0.507523 11.698116 25.621973 -0.505336 0.062248 3.386337 0.000000 0.115077 25.621969 -0.505323 0.043190 2.349686 0.000000 0.048645 17.064375 -0.323366 -2.123383 7.225510 -0.440460 24.418716 29.065676 -0.584849 0.049858 2.712143 0.000000 0.401014 43.596798 -1.002850 0.031502 1.713547 0.000000 0.151378 29.036238 -0.584704 6.076846 12.341576 0.000244 83.169998 178.429688 -91.255569 -0.004074 10.135504 -0.001541 54.117226 71.230072 -47.877274 0.020668 21.784241 -0.013153 8.096248 2.101774 3.693860 0.046730 23.798630 -0.015152 3.598880 -10.409522 3.326242 -2.356422 1.812637 0.453156 30.894533 0.415902 -48.256836 0.000000 3.623444 0.000000 168.191589 -179.999985 -179.999847 0.000000 2.517746 0.000000 172.135605 -179.999985 -179.999924 -2.930115 8.305481 -0.410568 170.855377 155.847870 179.998322 0.000000 3.561829 0.000000 0.000735 19.760786 -0.001362 0.000000 2.019272 0.000000 0.000699 13.832532 -0.000800 -1.054047 8.419662 -0.426880 170.731171 151.347778 179.997437 0.000000 3.886276 0.000000 0.001892 28.652084 -0.002531 0.000000 2.436172 0.000000 0.001493 19.082258 -0.001138 0.598167 7.872253 -0.507523 169.055069 149.593170 179.997421 0.000000 3.386902 0.000000 0.001978 30.406759 -0.002488 0.000000 2.350082 0.000000 0.001512 20.250896 -0.001068 2.255814 7.185272 -0.440460 153.450348 153.099899 179.998657 0.000000 2.712601 0.000000 0.002085 40.349884 -0.002396 0.000000 1.713837 0.000000 0.001409 26.873045 -0.000783
-106.085632 81.712868 140.351044 178.194809 179.048248 -3.026339 -10.971016 0.095589 0.023010 176.274506 15.208714 9.944025 0.004570 39.031075 0.123642 179.507706 -130.421219 -164.116913 -0.008896 37.150566 0.170975 46.793488 76.204262 -51.921288 -0.000000 28.787001 0.000000 10.896950 -0.071236 -0.029572 171.948685 2.301858 -1.023812 0.009491 38.940506 -0.054016 1.626701 -14.705221 -3.650267 0.081749 37.040115 -0.097397 16.375168 71.373848 -14.300663 -0.000000 28.787001 0.000000 0.025482 7.479645 -0.648438 179.995544 176.520142 179.308640 0.023064 16.635368 -0.010086 179.992523 171.683228 179.309448 0.013687 11.802849 -0.012787 179.744766 173.970016 176.775452 0.003067 17.711098 -0.003815 179.368484 165.639496 179.957932 0.009201 8.071732 -2.631149 178.391891 -172.621399 -178.734756 -6.072962 12.347145 -0.001083 99.000977 6.418986 -86.929855 0.010574 10.125097 -0.003799 134.786179 107.144196 -144.097916 0.010735 21.782318 -0.004135 168.425491 168.971497 159.288330 -0.015404 23.799362 -0.011536 179.669693 -170.371399 -169.515030 2.389336 1.769012 0.453156 149.670731 178.742706 -137.634689 0.066597 3.622833 0.000000 11.118241 -0.000024 -0.000231 0.046272 2.517319 0.000000 7.404737 -0.000049 -0.000175 3.082268 8.250214 -0.410568 9.626617 22.520058 -0.436677 0.065460 3.561218 0.000000 0.056941 18.425476 -0.350877 0.037109 2.018936 0.000000 0.027267 12.897903 -0.241166 1.208611 8.398880 -0.426880 10.381925 23.548122 -0.458419 0.071426 3.885620 0.000000 0.092537 23.548683 -0.459102 0.044777 2.435760 0.000000 0.039049 15.683532 -0.296619 -0.453377 7.881912 -0.507523 11.668216 25.845932 -0.510184 0.062248 3.386337 0.000000 0.115353 25.846140 -0.510894 0.043190 2.349686 0.000000 0.048636 17.213627 -0.327288 -2.123383 7.225510 -0.440460 25.047094 29.330980 -0.591247 0.049858 2.712143 0.000000 0.406104 43.998291 -1.015519 0.031502 1.713547 0.000000 0.152913 29.303673 -0.592496 6.078005 12.340385 -0.005539 83.186714 178.638168 -91.333969 -0.005585 10.142019 -0.003693 53.628510 70.849823 -47.360615 0.022423 21.785782 -0.021423 9.115757 2.521613 3.537570 0.054543 23.798294 -0.023438 4.051097 -10.531567 3.046390 -2.356422 1.812637 0.453156 30.812838 0.214075 -48.041817 0.000000 3.623444 0.000000 168.266632 -179.999969 179.999725 0.000000 2.517746 0.000000 172.185577 180.000000 179.999817 -2.930115 8.305481 -0.410568 170.945801 155.474030 179.999420 0.000000 3.561813 0.000000 0.000260 20.066750 -0.000538 0.000000 2.019272 0.000000 0.000247 14.046716 -0.000326 -1.054047 8.419662 -0.426880 170.873489 150.632767 179.999680 0.000000 3.886276 0.000000 0.000243 29.367140 -0.000374 0.000000 2.436172 0.000000 0.000205 19.558556 -0.000184 0.598167 7.872253 -0.507523 169.159302 148.806656 179.999329 0.000000 3.386902 0.000000 0.000530 31.193443 -0.000705 0.000000 2.350082 0.000000 0.000420 20.774815 -0.000285 2.255814 7.185272 -0.440460 153.700928 152.598053 -179.999802 0.000000 2.712601 0.000000 179.999588 138.897018 -179.999527 0.000000 1.713837 0.000000 179.999710 152.625427 -179.999847
